<svg xmlns="http://www.w3.org/2000/svg" width="375" height="812" viewBox="0 0 375 812">
  <rect width="375" height="812" fill="#f3f4f6" rx="20"/>
  <rect x="0" y="0" width="375" height="56" fill="#1a56db" rx="0"/>
  <text x="20" y="36" font-family="Arial" font-size="15" font-weight="bold" fill="white">📋 Mes devis</text>
  <text x="300" y="36" font-family="Arial" font-size="12" fill="rgba(255,255,255,0.8)">+ Nouveau</text>
  <rect x="16" y="68" width="343" height="36" fill="white" rx="8" stroke="#d1d5db" stroke-width="1"/>
  <text x="32" y="92" font-family="Arial" font-size="13" fill="#6b7280">Tous les statuts ▾</text>
  <rect x="16" y="116" width="343" height="80" fill="white" rx="8"/>
  <text x="32" y="142" font-family="Arial" font-size="14" font-weight="bold" fill="#1f2937">Inspection électrique annuelle</text>
  <text x="32" y="162" font-family="Arial" font-size="12" fill="#6b7280">Tech Industries SAS</text>
  <text x="32" y="182" font-family="Arial" font-size="11" fill="#9ca3af">Créé le 30/06/2026</text>
  <rect x="220" y="126" width="70" height="22" fill="#f3f4f6" rx="9999"/>
  <text x="255" y="142" font-family="Arial" font-size="11" font-weight="bold" fill="#4b5563" text-anchor="middle">Brouillon</text>
  <text x="310" y="175" font-family="Arial" font-size="16" font-weight="bold" fill="#1a56db">2 500 €</text>
  <rect x="16" y="204" width="343" height="80" fill="white" rx="8"/>
  <text x="32" y="230" font-family="Arial" font-size="14" font-weight="bold" fill="#1f2937">Diagnostic structure bâtiment</text>
  <text x="32" y="250" font-family="Arial" font-size="12" fill="#6b7280">Bâtiment Moderne SARL</text>
  <text x="32" y="270" font-family="Arial" font-size="11" fill="#9ca3af">Créé le 30/06/2026</text>
  <rect x="220" y="214" width="70" height="22" fill="#dbeafe" rx="9999"/>
  <text x="255" y="230" font-family="Arial" font-size="11" font-weight="bold" fill="#1a56db" text-anchor="middle">Envoyé</text>
  <text x="310" y="263" font-family="Arial" font-size="16" font-weight="bold" fill="#1a56db">5 800 €</text>
  <rect x="16" y="292" width="343" height="80" fill="white" rx="8"/>
  <text x="32" y="318" font-family="Arial" font-size="14" font-weight="bold" fill="#1f2937">Audit conformité incendie</text>
  <text x="32" y="338" font-family="Arial" font-size="12" fill="#6b7280">Services Pro</text>
  <text x="32" y="358" font-family="Arial" font-size="11" fill="#9ca3af">Créé le 30/06/2026</text>
  <rect x="220" y="302" width="70" height="22" fill="#d1fae5" rx="9999"/>
  <text x="255" y="318" font-family="Arial" font-size="11" font-weight="bold" fill="#059669" text-anchor="middle">Approuvé</text>
  <text x="310" y="351" font-family="Arial" font-size="16" font-weight="bold" fill="#1a56db">3 200 €</text>
</svg>
